<svg id="Capa_2" data-name="Capa 2" xmlns="http://www.w3.org/2000/svg" width="43.54" height="43.54" viewBox="0 0 43.54 43.54">
  <g id="Layer_1" data-name="Layer 1" transform="translate(0 0)">
    <path id="Path_61" data-name="Path 61" d="M39.69,22.68A18.18,18.18,0,1,1,21.51,4.5,18.18,18.18,0,0,1,39.69,22.68Z" fill="#d8aef4" fill-rule="evenodd"/>
    <path id="Path_62" data-name="Path 62" d="M43.54,21.92A21.77,21.77,0,1,1,21.91,0,21.77,21.77,0,0,1,43.54,21.92Zm-26,1-.1,13.52h6.62L24.12,23h3.3s1.06-1.74.47-5.57c0-.24-3.73-.31-3.73-.31V13.63L27.91,13V8.08s-10.32-2-10.38,5.21v3.45l-2.62.55v5.05Z" fill="#a652c6"/>
  </g>
</svg>
