<svg width="50" height="50" viewBox="0 0 50 50" fill="none" xmlns="http://www.w3.org/2000/svg">
<path d="M22.7091 4.37419C13.1266 5.41585 5.41579 13.1266 4.37412 22.5016C3.33245 32.2917 8.95989 41.04 17.5007 44.3766C18.1233 44.5841 18.7499 44.165 18.7499 43.335V39.9984C18.7499 39.9984 17.9158 40.21 16.8741 40.21C13.9566 40.21 12.7075 37.7075 12.4999 36.2508C12.2924 35.4167 11.8733 34.79 11.2507 34.1675C10.6241 33.96 10.4166 33.96 10.4166 33.7484C10.4166 33.3333 11.0432 33.3333 11.2507 33.3333C12.4999 33.3333 13.5416 34.79 13.9566 35.4167C14.9983 37.085 16.2516 37.5 16.8741 37.5C17.7083 37.5 18.3349 37.2925 18.7499 37.085C18.9575 35.6242 19.5841 34.1675 20.8333 33.3333C16.04 32.2917 12.4999 29.5817 12.4999 25C12.4999 22.7091 13.5416 20.4183 14.9983 18.75C14.7908 18.335 14.5833 17.2933 14.5833 15.8325C14.5833 14.9984 14.5833 13.9567 14.9983 13.1266C14.9983 12.7075 15.4174 12.5 15.6249 12.5H15.8325C16.8741 12.7075 18.9575 13.3341 20.8333 15.21C22.0825 14.7909 23.5432 14.5833 24.9999 14.5833C26.4566 14.5833 27.9174 14.7909 29.1666 15.21C31.0424 13.3341 33.3333 12.7075 34.3749 12.5H34.5825C35.0016 12.5 35.2091 12.7075 35.4166 13.1266C35.4166 13.9567 35.4166 14.9984 35.4166 15.8325C35.4166 17.5008 35.2091 18.335 35.0016 18.75C36.4583 20.4183 37.4999 22.5016 37.4999 25C37.4999 29.5817 33.9599 32.2917 29.1666 33.3333C30.4158 34.375 31.2499 36.2508 31.2499 38.1266V43.5425C31.2499 44.165 31.8766 44.7917 32.7066 44.5841C40.4174 41.4591 45.8333 33.96 45.8333 25.2075C45.8333 12.7075 35.2091 2.91748 22.7091 4.37419Z" fill="#AC4FC6"/>
</svg>
