<svg id="Capa_2" data-name="Capa 2" xmlns="http://www.w3.org/2000/svg" width="43.54" height="43.54" viewBox="0 0 43.54 43.54">
  <g id="Layer_1" data-name="Layer 1" transform="translate(0.009 0.001)">
    <path id="Path_55" data-name="Path 55" d="M43.53,21.93A21.76,21.76,0,1,1,37.266,6.483,21.77,21.77,0,0,1,43.53,21.93Z" fill="#a652c6"/>
    <path id="Path_56" data-name="Path 56" d="M14,10.23c2.81-.21,5.58,0,8.46,0h4.19a15.46,15.46,0,0,1,4,.2,4.55,4.55,0,0,1,3.3,3.41,18.69,18.69,0,0,1,.13,4.33c0,2.8,0,5.95-.06,8.9a18.48,18.48,0,0,1-.19,4.27,4.91,4.91,0,0,1-3.56,3.27,22.46,22.46,0,0,1-4.31.07H17.23a22.12,22.12,0,0,1-4.18-.2,4.54,4.54,0,0,1-3.47-3.19,18.71,18.71,0,0,1-.14-4.4c0-3.08,0-6.06.06-9.12a15.59,15.59,0,0,1,.26-4.27A4.53,4.53,0,0,1,14,10.23Zm13.13,2.89c-.14,1.26,0,2.77-.08,4.12,1.37,0,2.9.09,4.19,0-.12-1.24,0-2.72,0-4.06-1.37-.04-2.72-.06-4.09-.06Zm-7.4,5.5a4.09,4.09,0,0,0-2.33,3.49,4.35,4.35,0,0,0,5.43,4.55,4.3,4.3,0,0,0-1.7-8.42,3.51,3.51,0,0,0-1.38.38ZM11.86,20v5.33c0,1.54-.35,4,.06,5.26.61,2,2.82,1.62,5.46,1.64,3.06,0,5.38,0,8.4.07,2.6,0,4.87.35,5.65-1.3.58-1.26.24-3.83.25-5.43,0-2,.07-3.82,0-5.58L28,20a6.75,6.75,0,0,1-6.31,9.17A6.62,6.62,0,0,1,15,23.08a7.61,7.61,0,0,1,.46-3.18H11.92C11.85,19.89,11.85,20,11.86,20Z" fill="#d8aef4" fill-rule="evenodd"/>
  </g>
</svg>
