<svg id="Capa_2" data-name="Capa 2" xmlns="http://www.w3.org/2000/svg" width="43.54" height="43.54" viewBox="0 0 43.54 43.54">
  <g id="Layer_1" data-name="Layer 1" transform="translate(0.009 0.001)">
    <path id="Path_59" data-name="Path 59" d="M43.53,21.92A21.77,21.77,0,1,1,21.91,0,21.77,21.77,0,0,1,43.53,21.92Z" fill="#a652c6"/>
    <path id="Path_60" data-name="Path 60" d="M23.39,9.43h3c.3,3.8,2.5,5.68,6.15,6.13v4.13a10.88,10.88,0,0,1-6-1.93v9A7.75,7.75,0,0,1,19,34.11h-.65A7.46,7.46,0,0,1,13,31.5,7.62,7.62,0,0,1,11.5,29a7.745,7.745,0,0,1,8.59-10.24v4.56a3.58,3.58,0,0,0-3.84,1,3.23,3.23,0,0,0-.81,1.83,3.73,3.73,0,0,0,.43,2.16,3.51,3.51,0,0,0,6.36-.57l.09-.27a19.79,19.79,0,0,0,.06-2.2V9.41a9.07,9.07,0,0,0,1.01.02Z" fill="#d8aef4" fill-rule="evenodd"/>
  </g>
</svg>
