<svg id="you-tube-2017-icon-seeklogo.com-4" xmlns="http://www.w3.org/2000/svg" width="49.305" height="38.017" viewBox="0 0 49.305 38.017">
  <path id="Path_65" data-name="Path 65" d="M56.269,39.948a6.567,6.567,0,0,0-4.37-4.813C48.06,34,32.653,34,32.653,34s-15.408,0-19.274,1.134a6.514,6.514,0,0,0-4.37,4.813C8,44.179,8,53.009,8,53.009s0,8.83,1.037,13.061a6.567,6.567,0,0,0,4.37,4.813c3.838,1.134,19.246,1.134,19.246,1.134s15.408,0,19.274-1.134a6.514,6.514,0,0,0,4.37-4.813c1.009-4.231,1.009-13.061,1.009-13.061S57.305,44.179,56.269,39.948Z" transform="translate(-8 -34)" fill="#a652c6"/>
  <path id="Path_66" data-name="Path 66" d="M78,83.817V69.8l12.305,7.009Z" transform="translate(-58 -57.8)" fill="#fff"/>
</svg>
